<svg version="1.2" xmlns="http://www.w3.org/2000/svg" viewBox="0 0 64 64" width="64" height="64">
	<style>
		tspan { white-space:pre } 
		.t0 { font-size: 24px;fill: #ffde00;font-weight: 400;font-family: "DejaVuSans", "DejaVu Sans" } 
		.s1 { fill: #ffffff;stroke: #000000;stroke-miterlimit:10;stroke-width: 4 } 
		.t2 { font-size: 30px;fill: #000000;font-weight: 400;font-family: "DejaVuSans", "DejaVu Sans" } 
		.s3 { fill: #656565;stroke: #000000;stroke-miterlimit:10;stroke-width: 0 } 
		.s4 { fill: none;stroke: #000000;stroke-miterlimit:10 } 
		.s5 { fill: #baf9ff;stroke: #000000;stroke-miterlimit:10 } 
		.s6 { fill: #ffffff;stroke: #000000;stroke-miterlimit:10 } 
		.s7 { fill: #656565;stroke: #000000;stroke-miterlimit:10 } 
	</style>
	<g id="Layer 1">
		<text id="24" style="transform: matrix(1.233,0,0,1.233,1.158,32.706)" >
			<tspan x="0" y="0" class="t0">2</tspan><tspan  y="0" class="t0">4</tspan><tspan  y="0" class="t0">
</tspan>
		</text>
		<path id="Shape 1" fill-rule="evenodd" class="s1" d="m1.34 36.99h60.67z"/>
		<text id="Phraseology" style="transform: matrix(.345,0,0,.345,1,51.238)" >
			<tspan x="0" y="0" class="t2">P</tspan><tspan  y="0" class="t2">h</tspan><tspan  y="0" class="t2">r</tspan><tspan  y="0" class="t2">a</tspan><tspan  y="0" class="t2">s</tspan><tspan  y="0" class="t2">e</tspan><tspan  y="0" class="t2">o</tspan><tspan  y="0" class="t2">l</tspan><tspan  y="0" class="t2">o</tspan><tspan  y="0" class="t2">g</tspan><tspan  y="0" class="t2">y
</tspan>
		</text>
		<path id="Shape 2" fill-rule="evenodd" class="s3" d="m48.36 32v-8.34l-5.77-5.77c0.01-1.01 15-1.1 15 0l-5.15 5.78 0.1 8.33z"/>
		<path id="Shape 6" fill-rule="evenodd" class="s4" d="m48.34 23.65c0 0 0.47 0.5 4.32 0"/>
		<path id="Shape 3" fill-rule="evenodd" class="s5" d="m42.58 18.02l-0.08-4.2c-0.04-2.51 15.24-2.69 15.24 0l-0.13 4.16c-0.06-1.32-15.08-1.32-15.03 0.04z"/>
		<path id="Shape 4" fill-rule="evenodd" class="s6" d="m45.31 12.57v4.29zm3.49-0.56l0.03 4.81zm3.44-0.08v5.05zm2.95 0.16l-0.05 5.21z"/>
		<path id="Shape 3 copy" fill-rule="evenodd" class="s7" d="m45.55 12l0.09-2.75c-0.02-1.61 9.28-1.72 9.28 0l0.19 2.67c-0.03-0.85-9.59-0.79-9.56 0.08z"/>
		<path id="Shape 5" fill-rule="evenodd" class="s4" d=""/>
	</g>
</svg>